<mxfile host="app.diagrams.net" modified="2021-08-17T09:46:49.624Z" agent="5.0 (Windows NT 10.0; Win64; x64) AppleWebKit/537.36 (KHTML, like Gecko) Chrome/92.0.4515.159 Safari/537.36" etag="PcRYUc0CVs81ri-fYjDX" version="14.9.6" type="github">
  <diagram id="c06Ix4iVYV7eEzOt-wIA" name="Page-1">
    <mxGraphModel dx="1038" dy="489" grid="1" gridSize="10" guides="1" tooltips="1" connect="1" arrows="1" fold="1" page="1" pageScale="1" pageWidth="827" pageHeight="1169" math="0" shadow="0">
      <root>
        <mxCell id="0" />
        <mxCell id="1" parent="0" />
        <mxCell id="zo73ZFYegR16gJbBmpQ9-23" style="edgeStyle=orthogonalEdgeStyle;rounded=0;orthogonalLoop=1;jettySize=auto;html=1;exitX=0.5;exitY=1;exitDx=0;exitDy=0;" edge="1" parent="1" source="zo73ZFYegR16gJbBmpQ9-1" target="zo73ZFYegR16gJbBmpQ9-5">
          <mxGeometry relative="1" as="geometry" />
        </mxCell>
        <mxCell id="zo73ZFYegR16gJbBmpQ9-1" value="AttendeeChatList.java" style="rounded=0;whiteSpace=wrap;html=1;fontFamily=Times New Roman;fontSize=15;" vertex="1" parent="1">
          <mxGeometry x="333" y="380" width="190" height="40" as="geometry" />
        </mxCell>
        <mxCell id="zo73ZFYegR16gJbBmpQ9-18" style="edgeStyle=orthogonalEdgeStyle;rounded=0;orthogonalLoop=1;jettySize=auto;html=1;exitX=0.5;exitY=1;exitDx=0;exitDy=0;entryX=0.5;entryY=0;entryDx=0;entryDy=0;" edge="1" parent="1" source="zo73ZFYegR16gJbBmpQ9-3" target="zo73ZFYegR16gJbBmpQ9-1">
          <mxGeometry relative="1" as="geometry" />
        </mxCell>
        <mxCell id="zo73ZFYegR16gJbBmpQ9-3" value="panelist_chat_with_attendee.xml" style="rounded=0;whiteSpace=wrap;html=1;fontFamily=Times New Roman;fontSize=15;" vertex="1" parent="1">
          <mxGeometry x="310" y="290" width="236" height="40" as="geometry" />
        </mxCell>
        <mxCell id="zo73ZFYegR16gJbBmpQ9-20" style="edgeStyle=orthogonalEdgeStyle;rounded=0;orthogonalLoop=1;jettySize=auto;html=1;exitX=0.5;exitY=0;exitDx=0;exitDy=0;entryX=0;entryY=0.5;entryDx=0;entryDy=0;" edge="1" parent="1" source="zo73ZFYegR16gJbBmpQ9-4" target="zo73ZFYegR16gJbBmpQ9-1">
          <mxGeometry relative="1" as="geometry" />
        </mxCell>
        <mxCell id="zo73ZFYegR16gJbBmpQ9-4" value="AttendeeChatAdapter.java" style="rounded=0;whiteSpace=wrap;html=1;fontFamily=Times New Roman;fontSize=15;" vertex="1" parent="1">
          <mxGeometry x="110" y="420" width="194" height="40" as="geometry" />
        </mxCell>
        <mxCell id="zo73ZFYegR16gJbBmpQ9-22" style="edgeStyle=orthogonalEdgeStyle;rounded=0;orthogonalLoop=1;jettySize=auto;html=1;exitX=0;exitY=0.5;exitDx=0;exitDy=0;entryX=0.5;entryY=1;entryDx=0;entryDy=0;" edge="1" parent="1" source="zo73ZFYegR16gJbBmpQ9-5" target="zo73ZFYegR16gJbBmpQ9-4">
          <mxGeometry relative="1" as="geometry" />
        </mxCell>
        <mxCell id="zo73ZFYegR16gJbBmpQ9-5" value="AttendeeChatListRepo.java" style="rounded=0;whiteSpace=wrap;html=1;fontFamily=Times New Roman;fontSize=15;" vertex="1" parent="1">
          <mxGeometry x="332" y="470" width="192" height="40" as="geometry" />
        </mxCell>
        <mxCell id="zo73ZFYegR16gJbBmpQ9-6" style="edgeStyle=orthogonalEdgeStyle;rounded=0;orthogonalLoop=1;jettySize=auto;html=1;exitX=0;exitY=0.5;exitDx=0;exitDy=0;entryX=1;entryY=0.5;entryDx=0;entryDy=0;fontFamily=Times New Roman;fontSize=15;" edge="1" parent="1" source="zo73ZFYegR16gJbBmpQ9-7" target="zo73ZFYegR16gJbBmpQ9-15">
          <mxGeometry relative="1" as="geometry" />
        </mxCell>
        <mxCell id="zo73ZFYegR16gJbBmpQ9-7" value="PrivateUserQueryRsp.java" style="rounded=0;whiteSpace=wrap;html=1;fontFamily=Times New Roman;fontSize=15;" vertex="1" parent="1">
          <mxGeometry x="951" y="510" width="240" height="40" as="geometry" />
        </mxCell>
        <mxCell id="zo73ZFYegR16gJbBmpQ9-8" style="edgeStyle=orthogonalEdgeStyle;rounded=0;orthogonalLoop=1;jettySize=auto;html=1;exitX=0;exitY=0.5;exitDx=0;exitDy=0;entryX=1;entryY=0.5;entryDx=0;entryDy=0;fontFamily=Times New Roman;fontSize=15;" edge="1" parent="1" source="zo73ZFYegR16gJbBmpQ9-9" target="zo73ZFYegR16gJbBmpQ9-15">
          <mxGeometry relative="1" as="geometry" />
        </mxCell>
        <mxCell id="zo73ZFYegR16gJbBmpQ9-9" value="PrivateChatUserNumberStatus.java" style="rounded=0;whiteSpace=wrap;html=1;fontFamily=Times New Roman;fontSize=15;" vertex="1" parent="1">
          <mxGeometry x="951" y="360" width="240" height="40" as="geometry" />
        </mxCell>
        <mxCell id="zo73ZFYegR16gJbBmpQ9-10" value="" style="edgeStyle=orthogonalEdgeStyle;rounded=0;orthogonalLoop=1;jettySize=auto;html=1;fontFamily=Times New Roman;fontSize=15;" edge="1" parent="1" source="zo73ZFYegR16gJbBmpQ9-11" target="zo73ZFYegR16gJbBmpQ9-15">
          <mxGeometry relative="1" as="geometry" />
        </mxCell>
        <mxCell id="zo73ZFYegR16gJbBmpQ9-11" value="PrivateChatUserStatus.java" style="rounded=0;whiteSpace=wrap;html=1;fontFamily=Times New Roman;fontSize=15;" vertex="1" parent="1">
          <mxGeometry x="951" y="430" width="240" height="40" as="geometry" />
        </mxCell>
        <mxCell id="zo73ZFYegR16gJbBmpQ9-12" style="edgeStyle=orthogonalEdgeStyle;rounded=0;orthogonalLoop=1;jettySize=auto;html=1;exitX=0;exitY=0.5;exitDx=0;exitDy=0;entryX=1;entryY=0.5;entryDx=0;entryDy=0;fontFamily=Times New Roman;fontSize=15;" edge="1" parent="1" source="zo73ZFYegR16gJbBmpQ9-15" target="zo73ZFYegR16gJbBmpQ9-5">
          <mxGeometry relative="1" as="geometry" />
        </mxCell>
        <mxCell id="zo73ZFYegR16gJbBmpQ9-13" style="edgeStyle=orthogonalEdgeStyle;rounded=0;orthogonalLoop=1;jettySize=auto;html=1;exitX=0;exitY=0.5;exitDx=0;exitDy=0;entryX=1;entryY=0.5;entryDx=0;entryDy=0;fontFamily=Times New Roman;fontSize=15;" edge="1" parent="1" source="zo73ZFYegR16gJbBmpQ9-15" target="zo73ZFYegR16gJbBmpQ9-1">
          <mxGeometry relative="1" as="geometry" />
        </mxCell>
        <mxCell id="zo73ZFYegR16gJbBmpQ9-15" value="PrivateChatUserManager.java" style="rounded=0;whiteSpace=wrap;html=1;fontFamily=Times New Roman;fontSize=15;" vertex="1" parent="1">
          <mxGeometry x="641" y="470" width="194" height="40" as="geometry" />
        </mxCell>
        <mxCell id="zo73ZFYegR16gJbBmpQ9-16" style="edgeStyle=orthogonalEdgeStyle;rounded=0;orthogonalLoop=1;jettySize=auto;html=1;exitX=0;exitY=0.5;exitDx=0;exitDy=0;entryX=1;entryY=0.5;entryDx=0;entryDy=0;fontFamily=Times New Roman;fontSize=15;" edge="1" parent="1" source="zo73ZFYegR16gJbBmpQ9-17" target="zo73ZFYegR16gJbBmpQ9-15">
          <mxGeometry relative="1" as="geometry" />
        </mxCell>
        <mxCell id="zo73ZFYegR16gJbBmpQ9-17" value="PrivateChatUserItem.java" style="rounded=0;whiteSpace=wrap;html=1;fontFamily=Times New Roman;fontSize=15;" vertex="1" parent="1">
          <mxGeometry x="951" y="580" width="240" height="40" as="geometry" />
        </mxCell>
      </root>
    </mxGraphModel>
  </diagram>
</mxfile>
